<?xml version="1.0" encoding="UTF-8" standalone="no"?>
<!-- Created with Inkscape (http://www.inkscape.org/) -->

<svg
   xmlns:dc="http://purl.org/dc/elements/1.1/"
   xmlns:cc="http://creativecommons.org/ns#"
   xmlns:rdf="http://www.w3.org/1999/02/22-rdf-syntax-ns#"
   xmlns:svg="http://www.w3.org/2000/svg"
   xmlns="http://www.w3.org/2000/svg"
   xmlns:sodipodi="http://sodipodi.sourceforge.net/DTD/sodipodi-0.dtd"
   xmlns:inkscape="http://www.inkscape.org/namespaces/inkscape"
   width="91.081444mm"
   height="12.21787mm"
   viewBox="0 0 322.72953 43.291664"
   id="svg2"
   version="1.1"
   inkscape:version="0.91 r13725"
   sodipodi:docname="HEIR.svg">
  <defs
     id="defs4" />
  <sodipodi:namedview
     id="base"
     pagecolor="#ffffff"
     bordercolor="#666666"
     borderopacity="1.0"
     inkscape:pageopacity="0.0"
     inkscape:pageshadow="2"
     inkscape:zoom="1.4"
     inkscape:cx="-137.21964"
     inkscape:cy="-40.362149"
     inkscape:document-units="px"
     inkscape:current-layer="g4146"
     showgrid="false"
     fit-margin-top="0"
     fit-margin-left="0"
     fit-margin-right="0"
     fit-margin-bottom="0"
     inkscape:window-width="1920"
     inkscape:window-height="1056"
     inkscape:window-x="2560"
     inkscape:window-y="24"
     inkscape:window-maximized="1" />
  <metadata
     id="metadata7">
    <rdf:RDF>
      <cc:Work
         rdf:about="">
        <dc:format>image/svg+xml</dc:format>
        <dc:type
           rdf:resource="http://purl.org/dc/dcmitype/StillImage" />
        <dc:title></dc:title>
      </cc:Work>
    </rdf:RDF>
  </metadata>
  <g
     inkscape:label="Calque 1"
     inkscape:groupmode="layer"
     id="layer1"
     transform="translate(-210.28597,-566.34867)">
    <g
       transform="matrix(1.25,0,0,-1.25,157.72514,635.3405)"
       inkscape:label="SEIR"
       id="g4144">
      <g
         id="g4146">
        <g
           transform="matrix(1,0,0,-0.979896,0,84.778152)"
           id="g4148">
          <path
             inkscape:connector-curvature="0"
             id="path4150"
             style="fill:none;stroke:#000000;stroke-width:0.480564;stroke-linecap:butt;stroke-linejoin:miter;stroke-miterlimit:4;stroke-dasharray:none;stroke-opacity:1"
             d="m 199.09,30.855 28.121,0 c 2.402,0 4.34,1.933 4.34,4.333 l 0,25.134 c 0,2.4 -1.938,4.337 -4.34,4.337 l -28.121,0 c -2.402,0 -4.336,-1.937 -4.336,-4.337 l 0,-25.134 c 0,-2.4 1.934,-4.333 4.336,-4.333 z" />
        </g>
        <g
           transform="matrix(1,0,0,-0.979896,0,84.778152)"
           id="g4152">
          <path
             inkscape:connector-curvature="0"
             id="path4154"
             style="fill:none;stroke:#000000;stroke-width:0.48867601;stroke-linecap:butt;stroke-linejoin:miter;stroke-miterlimit:4;stroke-dasharray:none;stroke-opacity:1"
             d="m 46.523,30.436 30.532,0 c 2.343,0 4.23,1.89 4.23,4.234 l 0,24.52 c 0,2.344 -1.887,4.234 -4.23,4.234 l -30.532,0 c -2.343,0 -4.23,-1.89 -4.23,-4.234 l 0,-24.52 c 0,-2.344 1.887,-4.234 4.23,-4.234 z" />
        </g>
        <g
           transform="matrix(1,0,0,-0.979896,0,84.778152)"
           id="g4156">
          <path
             inkscape:connector-curvature="0"
             id="path4158"
             style="fill:none;stroke:#000000;stroke-width:0.501095;stroke-linecap:butt;stroke-linejoin:miter;stroke-miterlimit:4;stroke-dasharray:none;stroke-opacity:1"
             d="m 128.781,31.046 30.715,0 c 2.434,0 4.391,1.961 4.391,4.393 l 0,25.453 c 0,2.436 -1.957,4.393 -4.391,4.393 l -30.715,0 c -2.433,0 -4.394,-1.957 -4.394,-4.393 l 0,-25.453 c 0,-2.432 1.961,-4.393 4.394,-4.393 z" />
        </g>
        <g
           transform="matrix(1,0,0,-0.979896,0,84.778152)"
           id="g4160">
          <path
             inkscape:connector-curvature="0"
             id="path4162"
             style="fill:none;stroke:#000000;stroke-width:0.480564;stroke-linecap:butt;stroke-linejoin:miter;stroke-miterlimit:4;stroke-dasharray:none;stroke-opacity:1"
             d="m 267.531,31.393 28.125,0 c 2.403,0 4.336,1.933 4.336,4.337 l 0,25.13 c 0,2.404 -1.933,4.337 -4.336,4.337 l -28.125,0 c -2.402,0 -4.336,-1.933 -4.336,-4.337 l 0,-25.13 c 0,-2.404 1.934,-4.337 4.336,-4.337 z" />
        </g>
        <text
           id="text4164"
           style="font-style:italic;font-variant:normal;font-size:12.80000019px;font-family:'Times New Roman';-inkscape-font-specification:TimesNewRomanPS-ItalicMT;writing-mode:lr-tb;fill:#000000;fill-opacity:1;fill-rule:nonzero;stroke:none"
           transform="scale(1,-0.99999996)"
           x="242.75101"
           y="-44.653843">
          <tspan
             id="tspan4166"
             y="-44.653843"
             x="242.75101">γ</tspan>
        </text>
        <text
           id="text4168"
           style="font-style:italic;font-variant:normal;font-size:17.60000038px;font-family:'Times New Roman';-inkscape-font-specification:TimesNewRomanPS-ItalicMT;writing-mode:lr-tb;fill:#000000;fill-opacity:1;fill-rule:nonzero;stroke:none"
           transform="matrix(1,0,0,-1,277.61161,31.841553)">
          <tspan
             id="tspan4170"
             y="0"
             x="0">R</tspan>
        </text>
        <text
           id="text4184"
           style="font-style:italic;font-variant:normal;font-size:15px;font-family:'Times New Roman';-inkscape-font-specification:TimesNewRomanPS-ItalicMT;writing-mode:lr-tb;fill:#000000;fill-opacity:1;fill-rule:nonzero;stroke:none"
           transform="matrix(1,0,0,-0.99999993,302.41082,62.215011)">
          <tspan
             id="tspan4186"
             y="0"
             x="0" />
        </text>
        <text
           id="text4188"
           style="font-style:italic;font-variant:normal;font-size:17.60000038px;font-family:'Times New Roman';-inkscape-font-specification:TimesNewRomanPS-ItalicMT;writing-mode:lr-tb;fill:#000000;fill-opacity:1;fill-rule:nonzero;stroke:none"
           transform="matrix(1,0,0,-1,54.880629,33.93156)">
          <tspan
             id="tspan4190"
             y="0"
             x="0">H</tspan>
        </text>
        <g
           transform="matrix(1,0,0,-1,0,84.778152)"
           id="g4192">
          <path
             inkscape:connector-curvature="0"
             id="path4194"
             style="fill:none;stroke:#000000;stroke-width:0.83017999;stroke-linecap:butt;stroke-linejoin:miter;stroke-miterlimit:4;stroke-dasharray:none;stroke-opacity:1"
             d="m 163.203,46.426 27.496,0.004" />
        </g>
        <g
           transform="matrix(1,-1.74582e-4,-1.74582e-4,-1,0,84.778152)"
           id="g4196">
          <path
             inkscape:connector-curvature="0"
             id="path4198"
             style="fill:#000000;fill-opacity:1;fill-rule:evenodd;stroke:#000000;stroke-width:0.83017999;stroke-linecap:butt;stroke-linejoin:miter;stroke-miterlimit:4;stroke-dasharray:none;stroke-opacity:1"
             d="m 194.539,46.396 -5.745,3.321 -0.001,-6.641 5.746,3.32 z" />
        </g>
        <text
           id="text4206"
           style="font-style:italic;font-variant:normal;font-size:17.60000038px;font-family:'Times New Roman';-inkscape-font-specification:TimesNewRomanPS-ItalicMT;writing-mode:lr-tb;fill:#000000;fill-opacity:1;fill-rule:nonzero;stroke:none"
           transform="matrix(1,0,0,-1,140.67537,33.1917)">
          <tspan
             id="tspan4208"
             y="0"
             x="0">E</tspan>
        </text>
        <g
           transform="matrix(1,0,0,-1,0,84.778152)"
           id="g4210">
          <path
             inkscape:connector-curvature="0"
             id="path4212"
             style="fill:none;stroke:#000000;stroke-width:0.87675202;stroke-linecap:butt;stroke-linejoin:miter;stroke-miterlimit:4;stroke-dasharray:none;stroke-opacity:1"
             d="m 81.367,47.391 37.262,0.004" />
        </g>
        <g
           transform="matrix(1,-1.07353e-4,-1.07353e-4,-1,0,84.778152)"
           id="g4214">
          <path
             inkscape:connector-curvature="0"
             id="path4216"
             style="fill:#000000;fill-opacity:1;fill-rule:evenodd;stroke:#000000;stroke-width:0.87675202;stroke-linecap:butt;stroke-linejoin:miter;stroke-miterlimit:4;stroke-dasharray:none;stroke-opacity:1"
             d="m 122.681,47.381 -6.07,3.509 0.003,-7.012 6.067,3.503 z" />
        </g>
        <g
           transform="matrix(1,0,0,-1,0,84.778152)"
           id="g4254">
          <path
             inkscape:connector-curvature="0"
             id="path4256"
             style="fill:none;stroke:#000000;stroke-width:0.83017999;stroke-linecap:butt;stroke-linejoin:miter;stroke-miterlimit:4;stroke-dasharray:none;stroke-opacity:1"
             d="m 231.699,46.93 27.496,0.004" />
        </g>
        <g
           transform="matrix(1,-1.74582e-4,-1.74582e-4,-1,0,84.778152)"
           id="g4258">
          <path
             inkscape:connector-curvature="0"
             id="path4260"
             style="fill:#000000;fill-opacity:1;fill-rule:evenodd;stroke:#000000;stroke-width:0.83017999;stroke-linecap:butt;stroke-linejoin:miter;stroke-miterlimit:4;stroke-dasharray:none;stroke-opacity:1"
             d="m 263.036,46.888 -5.746,3.321 -0.001,-6.641 5.747,3.32 z" />
        </g>
        <text
           id="text4262"
           style="font-style:italic;font-variant:normal;font-size:17.60000038px;font-family:'Times New Roman';-inkscape-font-specification:TimesNewRomanPS-ItalicMT;writing-mode:lr-tb;fill:#000000;fill-opacity:1;fill-rule:nonzero;stroke:none"
           transform="matrix(1,0,0,-1,211.09947,32.263666)">
          <tspan
             id="tspan4264"
             y="0"
             x="0">I</tspan>
        </text>
        <text
           xml:space="preserve"
           style="font-style:normal;font-variant:normal;font-weight:normal;font-stretch:normal;font-size:15px;line-height:125%;font-family:Carlito;-inkscape-font-specification:'Carlito, Normal';text-align:start;letter-spacing:0px;word-spacing:0px;writing-mode:lr-tb;text-anchor:start;fill:#000000;fill-opacity:1;stroke:none;stroke-width:1px;stroke-linecap:butt;stroke-linejoin:miter;stroke-opacity:1"
           x="98.620094"
           y="-43.025719"
           id="text4395"
           sodipodi:linespacing="125%"
           transform="scale(1,-1)"><tspan
             sodipodi:role="line"
             id="tspan4397"
             x="98.620094"
             y="-43.025719"
             style="font-style:italic;font-variant:normal;font-weight:normal;font-stretch:normal;font-size:12.80000019px;font-family:'Times New Roman';-inkscape-font-specification:'Times New Roman, Italic'">β</tspan></text>
        <text
           xml:space="preserve"
           style="font-style:italic;font-variant:normal;font-weight:normal;font-stretch:normal;font-size:12.80000019px;line-height:125%;font-family:Carlito;-inkscape-font-specification:'Carlito Italic';text-align:start;letter-spacing:0px;word-spacing:0px;writing-mode:lr-tb;text-anchor:start;fill:#000000;fill-opacity:1;stroke:none;stroke-width:1px;stroke-linecap:butt;stroke-linejoin:miter;stroke-opacity:1"
           x="175.19153"
           y="-41.769466"
           id="text4399"
           sodipodi:linespacing="125%"
           transform="scale(1,-1)"><tspan
             sodipodi:role="line"
             id="tspan4401"
             x="175.19153"
             y="-41.769466">λ</tspan></text>
      </g>
    </g>
  </g>
</svg>
